ModelForces
version=1
nRows=4
nColumns=157
inDegrees=no

This file contains the forces exerted on a model during a simulation.

A force is a generalized force, meaning that it can be either a force (N) or a torque (Nm).

Units are S.I. units (second, meters, Newtons, ...)
Angles are in degrees.

endheader
time	glut_med1_r	glut_med2_r	glut_med3_r	glut_min1_r	glut_min2_r	glut_min3_r	semimem_r	semiten_r	bifemlh_r	bifemsh_r	sar_r	add_long_r	add_brev_r	add_mag1_r	add_mag2_r	add_mag3_r	tfl_r	pect_r	grac_r	glut_max1_r	glut_max2_r	glut_max3_r	iliacus_r	psoas_r	quad_fem_r	gem_r	peri_r	rect_fem_r	vas_med_r	vas_int_r	vas_lat_r	med_gas_r	lat_gas_r	soleus_r	tib_post_r	flex_dig_r	flex_hal_r	tib_ant_r	per_brev_r	per_long_r	per_tert_r	ext_dig_r	ext_hal_r	glut_med1_l	glut_med2_l	glut_med3_l	glut_min1_l	glut_min2_l	glut_min3_l	semimem_l	semiten_l	bifemlh_l	bifemsh_l	sar_l	add_long_l	add_brev_l	add_mag1_l	add_mag2_l	add_mag3_l	tfl_l	pect_l	grac_l	glut_max1_l	glut_max2_l	glut_max3_l	iliacus_l	psoas_l	quad_fem_l	gem_l	peri_l	rect_fem_l	vas_med_l	vas_int_l	vas_lat_l	med_gas_l	lat_gas_l	soleus_l	tib_post_l	flex_dig_l	flex_hal_l	tib_ant_l	per_brev_l	per_long_l	per_tert_l	ext_dig_l	ext_hal_l	ercspn_r	ercspn_l	intobl_r	intobl_l	extobl_r	extobl_l	femur_lat_meniscii_r.femur_lat_r.force.X	femur_lat_meniscii_r.femur_lat_r.force.Y	femur_lat_meniscii_r.femur_lat_r.force.Z	femur_lat_meniscii_r.femur_lat_r.torque.X	femur_lat_meniscii_r.femur_lat_r.torque.Y	femur_lat_meniscii_r.femur_lat_r.torque.Z	femur_lat_meniscii_r.meniscus_lat_r.force.X	femur_lat_meniscii_r.meniscus_lat_r.force.Y	femur_lat_meniscii_r.meniscus_lat_r.force.Z	femur_lat_meniscii_r.meniscus_lat_r.torque.X	femur_lat_meniscii_r.meniscus_lat_r.torque.Y	femur_lat_meniscii_r.meniscus_lat_r.torque.Z	femur_med_meniscii_r.femur_med_r.force.X	femur_med_meniscii_r.femur_med_r.force.Y	femur_med_meniscii_r.femur_med_r.force.Z	femur_med_meniscii_r.femur_med_r.torque.X	femur_med_meniscii_r.femur_med_r.torque.Y	femur_med_meniscii_r.femur_med_r.torque.Z	femur_med_meniscii_r.meniscus_med_r.force.X	femur_med_meniscii_r.meniscus_med_r.force.Y	femur_med_meniscii_r.meniscus_med_r.force.Z	femur_med_meniscii_r.meniscus_med_r.torque.X	femur_med_meniscii_r.meniscus_med_r.torque.Y	femur_med_meniscii_r.meniscus_med_r.torque.Z	femur_med_tibia_r.tibia_upper_r.force.X	femur_med_tibia_r.tibia_upper_r.force.Y	femur_med_tibia_r.tibia_upper_r.force.Z	femur_med_tibia_r.tibia_upper_r.torque.X	femur_med_tibia_r.tibia_upper_r.torque.Y	femur_med_tibia_r.tibia_upper_r.torque.Z	femur_med_tibia_r.femur_med_r.force.X	femur_med_tibia_r.femur_med_r.force.Y	femur_med_tibia_r.femur_med_r.force.Z	femur_med_tibia_r.femur_med_r.torque.X	femur_med_tibia_r.femur_med_r.torque.Y	femur_med_tibia_r.femur_med_r.torque.Z	femur_lat_tibia_r.tibia_upper_r.force.X	femur_lat_tibia_r.tibia_upper_r.force.Y	femur_lat_tibia_r.tibia_upper_r.force.Z	femur_lat_tibia_r.tibia_upper_r.torque.X	femur_lat_tibia_r.tibia_upper_r.torque.Y	femur_lat_tibia_r.tibia_upper_r.torque.Z	femur_lat_tibia_r.femur_lat_r.force.X	femur_lat_tibia_r.femur_lat_r.force.Y	femur_lat_tibia_r.femur_lat_r.force.Z	femur_lat_tibia_r.femur_lat_r.torque.X	femur_lat_tibia_r.femur_lat_r.torque.Y	femur_lat_tibia_r.femur_lat_r.torque.Z	aACL_R	pACL_R	aPCL_R	pPCL_R	aMCL_R	mMCL_R	pMCL_R	aLCL_R	mLCL_R	pLCL_R	ground_prescribedForce_fx	ground_prescribedForce_fy	ground_prescribedForce_fz	ground_prescribedForce_px	ground_prescribedForce_py	ground_prescribedForce_pz
      0.27191248	      8.50649908	      6.32411508	      6.77871024	      2.95407880	      3.49872592	      3.59728041	      5.17513396	      4.54554712	      7.99203288	      7.96202316	      0.00000000	      6.27363908	      4.59630098	      3.25560188	      2.74390825	      4.51142297	      4.81980666	      2.48890812	      1.68627831	      4.08081941	      6.20350317	      4.64003170	     23.84369061	     14.31644042	      4.03852312	      3.04837329	      4.82202077	     14.70530143	     11.85854090	     12.85994788	     17.82320022	      2.32986425	      1.41827481	      9.28651308	      7.15171926	      2.28064552	      1.66035113	     14.27579209	      5.94843407	     11.62048480	      8.50860325	      6.72319859	      2.59413637	      8.50649908	      6.32411508	      6.77871024	      2.95407880	      3.49872592	      3.59728041	     10.12475241	      4.59662107	      8.83721814	      8.03606713	      1.68761967	      6.27363908	      4.59630098	      3.25560188	      2.74390825	      4.51142297	      4.42149560	      2.48890812	      1.73405111	      4.08081941	      6.20350317	      4.64003170	     23.84369061	     14.31644042	      4.03852312	      3.04837329	      4.82202077	     12.24074506	      7.37815547	      8.48159236	      9.11522932	     16.91338192	      7.85503160	     36.64989970	     44.58980108	      3.33606634	      3.46125457	      9.63991734	      5.03426901	     14.03462920	      2.21491999	      6.16573532	      1.94307229	     27.78901265	     27.78901265	     10.09543366	     10.09543366	     27.78892157	     27.78892157	     25.12453605	     26.70852181	      9.63034884	     -4.61250236	      0.60834477	     10.35240004	    -25.12453605	    -26.70852181	     -9.63034884	      0.94922742	     -0.74649658	     -0.41216677	     69.65872956	     49.14324857	     13.89339162	     -4.59324430	     -1.57870673	     28.57870385	    -69.65872956	    -49.14324857	    -13.89339162	     -0.67804664	      1.33658808	     -1.29307501	    -31.63301957	    -48.46244768	     -0.41488750	     -0.96932007	      0.63758479	     -0.61947981	     31.63301957	     48.46244768	      0.41488750	      0.87212255	     -0.68268127	     13.29794550	      0.00000000	      0.00000000	      0.00000000	      0.00000000	      0.00000000	      0.00000000	      0.00000000	      0.00000000	      0.00000000	      0.00000000	      0.00000000	      0.00000000	     44.02511007	     25.36398308	     33.17235500	      8.28098475	      0.00000000	      0.00000000	      0.00000000	      5.20304210	      0.00000000	      0.00000000	     95.26279000	    -55.00000000	      0.00000000	      0.03000000	     -0.03000000	      0.00000000
      0.27543619	      8.46347164	      6.29464372	      6.74672714	      2.94089584	      3.48441914	      3.57912532	      5.17041722	      4.53721053	      7.89195339	      7.91104249	      0.00000000	      6.24405851	      4.57597724	      3.24053036	      2.73090087	      4.48788788	      4.78370912	      2.47772777	      1.69291202	      4.06179339	      6.17449712	      4.61794856	     23.79003961	     14.25572021	      4.02010557	      3.03963841	      4.79035369	     14.58958718	     11.87807254	     12.81809584	     17.69249634	      2.36501795	      1.42638890	      9.43438499	      7.21763074	      2.27971174	      1.61136274	     14.15955689	      5.86851745	     11.56289185	      8.68724807	      6.81718592	      2.61612775	      8.46347164	      6.29464372	      6.74672714	      2.94089584	      3.48441914	      3.57912532	     10.06351607	      4.57358273	      8.78573156	      7.99939127	      1.68012318	      6.24405851	      4.57597724	      3.24053036	      2.73090087	      4.48788788	      4.40691213	      2.47772777	      1.72621340	      4.06179339	      6.17449712	      4.61794856	     23.79003961	     14.25572021	      4.02010557	      3.03963841	      4.79035369	     12.17046101	      7.34291083	      8.44031272	      9.07104261	     16.79180190	      7.79850572	     36.40887204	     44.49135787	      3.31115680	      3.43764731	      9.58668037	      5.00331498	     13.96675939	      2.20552832	      6.12286649	      1.92996430	     27.66471743	     27.66471743	     10.04632047	     10.04632047	     27.74476616	     27.74476616	     24.97125129	     26.43509202	      9.56229836	     -4.57791166	      0.60430226	     10.29013847	    -24.97125129	    -26.43509202	     -9.56229836	      0.93997183	     -0.74127719	     -0.41125258	     70.18234234	     49.66256282	     13.95080905	     -4.60238206	     -1.59232322	     28.79617665	    -70.18234234	    -49.66256282	    -13.95080905	     -0.69106572	      1.34964288	     -1.30252446	    -30.19469367	    -46.15170187	     -0.54049946	     -0.92229112	      0.60984713	     -0.59071094	     30.19469367	     46.15170187	      0.54049946	      0.77334706	     -0.65412607	     12.69223771	      0.00000000	      0.00000000	      0.00000000	      0.00000000	      0.00000000	      0.00000000	      0.00000000	      0.00000000	      0.00000000	      0.00000000	      0.00000000	      0.00000000	     44.38730842	     25.70236889	     33.14548893	      7.98996326	      0.00000000	      0.00000000	      0.00000000	      4.27253552	      0.00000000	      0.00000000	     95.26279000	    -55.00000000	      0.00000000	      0.03000000	     -0.03000000	      0.00000000
      0.27928885	      8.41864654	      6.26393401	      6.71340215	      2.92715636	      3.46951049	      3.56021138	      5.14976502	      4.51893407	      7.76283482	      7.77219546	      0.00000000	      6.21323686	      4.55479583	      3.22482562	      2.71734858	      4.46337055	      4.73955943	      2.46607585	      1.68867314	      4.04196917	      6.14427434	      4.59494048	     23.73414506	     14.19247654	      4.00091240	      3.03054103	      4.75728034	     14.44110179	     11.84750881	     12.71897377	     17.49110682	      2.37000312	      1.42361847	      9.58100171	      7.31592273	      2.27019674	      1.55863751	     14.04541104	      5.77562240	     11.48463971	      0.00000000	      6.97430239	      2.63733687	      8.41864654	      6.26393401	      6.71340215	      2.92715636	      3.46951049	      3.56021138	      9.99966103	      4.54958134	      8.73206322	      7.96117129	      1.67231013	      6.21323686	      4.55479583	      3.22482562	      2.71734858	      4.46337055	      4.39172029	      2.46607585	      1.71804527	      4.04196917	      6.14427434	      4.59494048	     23.73414506	     14.19247654	      4.00091240	      3.03054103	      4.75728034	     12.09720715	      7.30619330	      8.39731079	      9.02501392	     16.66450577	      7.73932335	     36.15716365	     44.38869192	      3.28546830	      3.41295125	      9.53120885	      4.97102916	     13.89585017	      2.19574522	      6.07812925	      1.91630057	     27.53517599	     27.53517599	      9.99515109	      9.99515109	     27.69876537	     27.69876537	     24.89078851	     26.31239584	      9.46989474	     -4.53636069	      0.60207070	     10.25763350	    -24.89078851	    -26.31239584	     -9.46989474	      0.93340855	     -0.73779727	     -0.41046903	     70.52441188	     49.76600019	     14.07424916	     -4.65174023	     -1.59896989	     28.93731037	    -70.52441188	    -49.76600019	    -14.07424916	     -0.68955984	      1.35496960	     -1.30990662	    -28.96280318	    -44.14062825	     -0.62885119	     -0.88138186	      0.58583568	     -0.56637179	     28.96280318	     44.14062825	      0.62885119	      0.69558342	     -0.62928559	     12.17349023	      0.00000000	      0.00000000	      0.00000000	      0.00000000	      0.00000000	      0.00000000	      0.00000000	      0.00000000	      0.00000000	      0.00000000	      0.00000000	      0.00000000	     44.49104747	     25.76549157	     32.94748185	      7.63539656	      0.00000000	      0.00000000	      0.00000000	      3.18495439	      0.00000000	      0.00000000	     95.26279000	    -55.00000000	      0.00000000	      0.03000000	     -0.03000000	      0.00000000
      0.27967411	      8.41428719	      6.26094703	      6.71016090	      2.92581975	      3.46806035	      3.55837193	      5.14669991	      4.51653434	      7.74896994	      7.75705824	      0.00000000	      6.21023909	      4.55273446	      3.22329809	      2.71603050	      4.46098624	      4.73489355	      2.46494240	      1.68795413	      4.04004103	      6.14133483	      4.59270276	     23.72870906	     14.18632667	      3.99904547	      3.02965642	      4.75405923	     14.42483983	     11.84084734	     12.70559969	     17.46689364	      2.37028863	      1.42314918	      9.59612857	      7.32763600	      2.26886705	      1.55354086	     14.03463623	      5.76561092	     11.47556573	      5.01084086	      6.99253964	      2.63914724	      8.41428719	      6.26094703	      6.71016090	      2.92581975	      3.46806035	      3.55837193	      9.99344765	      4.54724711	      8.72684217	      7.95745364	      1.67154998	      6.21023909	      4.55273446	      3.22329809	      2.71603050	      4.46098624	      4.39024290	      2.46494240	      1.71725073	      4.04004103	      6.14133483	      4.59270276	     23.72870906	     14.18632667	      3.99904547	      3.02965642	      4.75405923	     12.09008120	      7.30262241	      8.39312887	      9.02053774	     16.65209002	      7.73355109	     36.13265029	     44.37870123	      3.28298407	      3.41054314	      9.52581355	      4.96788715	     13.88894259	      2.19479384	      6.07377473	      1.91497151	     27.52257422	     27.52257422	      9.99017451	      9.99017451	     27.69429164	     27.69429164	     24.90222329	     26.30858983	      9.46902932	     -4.53591546	      0.60229867	     10.26248078	    -24.90222329	    -26.30858983	     -9.46902932	      0.93326340	     -0.73802164	     -0.41091915	     70.57173103	     49.77800998	     14.07662991	     -4.65251212	     -1.59998958	     28.95683495	    -70.57173103	    -49.77800998	    -14.07662991	     -0.68973478	      1.35593831	     -1.31101350	    -28.86074999	    -43.97377520	     -0.63622499	     -0.87797360	      0.58383946	     -0.56435041	     28.86074999	     43.97377520	      0.63622499	      0.68910357	     -0.62722329	     12.13051307	      0.00000000	      0.00000000	      0.00000000	      0.00000000	      0.00000000	      0.00000000	      0.00000000	      0.00000000	      0.00000000	      0.00000000	      0.00000000	      0.00000000	     44.50869696	     25.78134855	     32.87435277	      7.48021571	      0.00000000	      0.00000000	      0.00000000	      2.95137857	      0.00000000	      0.00000000	     95.26279000	    -55.00000000	      0.00000000	      0.03000000	     -0.03000000	      0.00000000
